# xmcd CD database file
#
# Track frame offsets:
#	150
#	14121
#	26037
#	44866
#	57474
#	68429
#	82188
#	101451
#	116249
#	131687
#
# Disc length: 1920 seconds
#
# Revision: 1
# Processed by: cddbd v1.5.2PL0 Copyright (c) Steve Scherf et al.
# Submitted via: CDex 1.51
#
DISCID=95077e0a
DTITLE=Rebecca Cole and Carolyn Wonderland - Drink the Rain
DYEAR=2001
DGENRE=Blues
TTITLE0=Sit Down Servant
TTITLE1=Mama Help Us
TTITLE2=Prayer
TTITLE3=Old Woman
TTITLE4=What It Meant
TTITLE5=Drink the Rain
TTITLE6=Monster in My Head
TTITLE7=The Everyday
TTITLE8=Love (Has Finally Found Me)
TTITLE9=Lullaby
EXTD=YEAR: 2001
EXTT0=
EXTT1=
EXTT2=
EXTT3=
EXTT4=
EXTT5=
EXTT6=
EXTT7=
EXTT8=
EXTT9=
PLAYORDER=
